# xmcd
#
# Track frame offsets:
#	150
#	15830
#	32200
#	47132
#	63052
#	78257
#	93992
#	112135
#	124707
#	141057
#	157385
#	172727
#
# Disc length: 2502 seconds
#
# Revision: 1
# Processed by: cddbd v1.5.2PL0 Copyright (c) Steve Scherf et al.
# Submitted via: audiograbber 1.83.01
#
DISCID=9209c40c
DTITLE=Bata Illic - Dich erkenn´ ich mit verbund´ nen Augen
DYEAR=1994
DGENRE=Schlager
TTITLE0=Dich erkenn´ ich mit verbund´ nen Augen
TTITLE1=Wenn du dann bei mir bist
TTITLE2=Flammende Augen
TTITLE3=Schwarze Madonna
TTITLE4=1000 Mandolinen
TTITLE5=In Deinen Augen seh ich Tränen
TTITLE6=Nur ein bisschen Zärtlichkeit
TTITLE7=Michaela
TTITLE8=Mr. Cannibal
TTITLE9=Bahia blanca
TTITLE10=Candida
TTITLE11=Barfuss in der heissen Sonne
EXTD=
EXTT0=
EXTT1=
EXTT2=
EXTT3=
EXTT4=
EXTT5=
EXTT6=
EXTT7=
EXTT8=
EXTT9=
EXTT10=
EXTT11=
PLAYORDER=
